<svg xmlns="http://www.w3.org/2000/svg" viewBox="0 0 12000 12000"><path d="M30 11051c0-10 10-29 23-43 12-14 31-42 41-64 11-21 30-53 43-71 13-17 23-34 23-37 0-4 22-41 48-84 27-42 51-82 53-87 2-6 57-101 122-210 65-110 122-207 127-215s26-44 47-80 45-77 53-91 65-110 125-213c61-102 124-210 140-240 17-29 35-60 41-67 12-15 119-198 125-214 3-9 125-215 331-560 33-55 64-107 68-115 5-8 33-55 63-105 29-49 56-97 60-105s18-33 32-55 28-47 32-55 30-53 58-100c55-90 174-293 214-363 13-23 33-58 46-77s59-98 104-175 86-147 91-155c37-61 90-153 90-157 0-2 15-27 33-56 19-29 94-155 167-282 73-126 141-241 150-255s33-52 52-85c51-88 168-288 178-305 5-8 30-51 56-95s55-93 64-110c10-16 76-129 147-250s141-239 156-262c15-24 27-45 27-48 0-2 24-44 54-92 29-49 84-141 122-206 38-64 74-125 79-135 6-9 21-35 33-57 13-22 40-68 60-103 20-34 104-176 185-315 82-138 184-310 228-382 43-71 82-137 85-145 4-8 28-50 53-93s51-85 56-95c6-10 29-49 51-87 23-39 81-137 129-220 48-82 101-170 116-195 16-25 42-70 59-100 16-30 41-73 54-95 14-22 31-51 39-65s58-99 112-190c53-91 109-185 123-210s32-56 42-70c14-21 245-413 316-538 29-51 306-521 325-552 25-40 85-142 107-180 11-19 75-129 142-245 68-115 129-226 136-245 9-26 19-36 38-38 21-3 26 1 26 18 0 11 5 26 11 33s25 37 42 69c55 98 207 357 294 502 45 76 83 141 83 145s8 17 18 31c9 13 31 47 47 76 40 70 85 146 170 289 40 66 83 140 97 165s54 95 90 155c36 61 76 129 89 151 40 69 81 137 104 174 13 19 34 55 48 80 13 25 75 131 137 235 62 105 122 208 135 230 23 41 196 336 338 575 44 74 88 149 97 165 10 17 31 54 49 83 17 29 31 55 31 57s13 24 29 47c29 44 143 235 150 253 4 9 62 109 91 155 5 8 46 78 91 155s91 156 104 175 33 54 46 77 61 105 107 182c45 78 82 143 82 145 0 3 18 32 40 65s40 63 40 66 16 31 35 61 35 57 35 59c0 3 17 34 39 68 51 83 210 351 239 406 13 24 39 67 58 97 19 29 34 57 34 62 0 4 5 13 12 20s26 37 43 67c40 73 155 269 221 379 30 48 54 90 54 92 0 3 17 33 39 67 21 34 81 134 132 222s103 175 115 193 32 52 44 75c11 23 26 51 33 61 7 11 27 44 45 72 17 29 32 56 32 60s6 15 14 23c7 9 27 41 43 71 25 47 61 106 111 185 6 11 16 29 22 40 5 11 20 36 32 56 13 21 45 75 71 120 26 46 52 91 57 99 47 78 137 229 146 246 9 16 74 128 114 194 5 8 64 110 131 225 67 116 128 217 135 225 6 8 25 39 40 68 32 59 30 54 100 172 103 173 169 285 177 300 4 8 18 33 32 55s37 62 51 90c15 27 34 60 44 75 14 20 169 281 307 517 10 17 45 77 78 134 33 56 67 114 75 129 36 62 105 177 125 210 58 91 145 242 145 250 0 5 11 12 25 16 16 4 25 13 25 25 0 19-121 19-5985 19-5821 0-5985-1-5985-19zm1471-421h729v-110H802l-31 55c-35 62-37 69-15 61 9-3 344-6 745-6zm2834-21c81-31 173-123 206-205 20-49 24-77 24-169 0-102-3-114-30-169-68-134-209-204-395-194-109 7-188 40-253 106-212 217-112 592 174 652 73 15 206 5 274-21zm1709 20c88-22 155-107 156-196 0-85-40-146-156-239-100-78-125-111-131-168-5-37-1-47 27-79s38-37 77-37c64 0 100 22 114 70 8 27 18 40 29 40 14 0 19-12 22-62 3-35 4-65 2-66-8-10-88-22-149-22-137 0-215 67-215 183 1 81 27 117 206 278 72 64 93 143 54 206-26 44-73 67-123 60-57-8-89-36-108-92-16-50-31-65-45-44-12 20-4 133 10 148 29 29 153 40 230 20zm950-18c66-33 99-85 104-166 5-82-22-141-97-204-195-166-217-203-171-279 27-44 71-62 123-50 53 12 64 22 79 69 8 27 17 39 30 39 10 0 18-3 18-7 1-5 2-34 4-65 5-67 5-68-109-75-102-7-154 7-204 55-44 42-57 86-47 157 9 58 50 111 150 195 94 80 126 127 126 191 0 52-23 90-70 114-39 20-73 19-118-4-40-20-57-45-67-98-6-30-27-44-38-25-3 4-8 37-11 74l-7 66 33 16c50 23 67 25 149 22 54-2 89-9 123-25zm4226-35l-31-56H9760v110l743 2c408 2 744 2 746 1s-11-27-29-57zm-8550 43c0-5-13-9-30-9-48 0-60-37-60-180v-120h107l79 107c99 136 130 170 166 189 33 17 348 29 348 13 0-5-11-9-25-9-13 0-33-10-45-22-18-20-20-35-20-190v-168l198 2 197 3 3 110c4 130-5 232-21 246-7 5-20 15-30 22-15 10 6 13 113 13 71 0 130-3 130-7s-12-9-27-11c-50-6-53-26-53-355 0-172 4-313 10-327 6-16 17-26 30-26 11 0 20-3 20-7 0-5-56-8-125-9-69 0-125 3-125 8 0 4 11 8 24 8 45 0 56 32 56 167v123h-400v-119c0-132 9-171 39-171 11 0 22-3 25-8 2-4-54-8-125-8s-129 3-129 8c0 4 11 8 24 8 50 0 51 9 51 351 0 219-3 321-11 329-19 19-75-37-226-231-21-26-38-53-38-59s15-30 34-53c18-23 41-56 49-73 55-108 13-220-98-264-36-15-395-22-395-9 0 5 11 9 24 9 55 0 56 4 56 348 0 271-2 321-16 340-8 12-22 22-30 22s-14 3-14 8c0 4 59 7 130 8 72 1 130-3 130-7zm2398-5c133-38 226-140 258-282 15-65 15-87 6-145-26-148-106-237-252-282-44-14-104-18-287-20-128-1-233 1-233 6s13 9 30 9c54 0 57 19 56 364l-1 308-32 27-31 26 215 3c176 2 226 0 271-14zm689 8c21-13 34-104 18-121-17-18-32-8-40 28-8 39-21 48-76 56-53 8-124-8-133-31-3-9-6-81-6-160v-144h63c69 0 104 17 109 53 2 14 10 22 23 22 17 0 21-9 27-65 8-75 0-90-36-66-18 11-48 16-106 16h-81l3-142 3-143 74 3c82 3 97 10 106 53 4 19 13 29 24 29 19 0 31-41 31-109 0-32-1-33-27-25-16 4-112 8-215 7-104 0-188 4-188 8 0 5 11 9 25 9 15 0 31 9 40 24 14 21 16 66 13 341-3 296-4 319-21 329-10 6-25 16-33 21-17 12 384 19 403 7zm923-4c0-4-13-8-30-8-56 0-60-21-60-366 0-272 2-310 17-326 9-10 22-18 29-18s15-4 18-8c3-5-51-8-119-8-69 0-125 4-125 8s9 8 19 8c11 0 27 10 35 22 14 19 16 65 16 308 0 270-7 361-28 368-5 1-17 8-26 15-13 10 9 12 119 13 74 0 135-3 135-8zm1010 5c0-2-11-8-25-13-19-7-25-17-25-41 0-30 55-206 70-222 4-5 50-9 101-9l94-1 48 124c26 68 46 132 43 142-4 15 4 17 57 18 34 0 113 2 175 4 65 2 112 0 112-6 0-5-13-9-30-9-50 0-58-31-65-246-3-104-8-213-10-241-6-65 10-70 51-15 31 40 254 280 400 429 69 70 98 93 118 93h26v-348c0-399-2-388 76-385 85 3 84-2 81 362l-2 313-32 27-31 26 217 3c190 2 224 0 277-16 164-51 256-183 258-367 1-78-3-98-27-150-47-101-109-153-227-190-47-15-107-18-412-20-202-1-358 1-358 6s15 9 33 9c54 0 59 21 64 303 3 136 2 247-2 247-5 0-24-19-44-42-30-36-139-155-445-486-34-36-56-52-70-50-21 3-21 9-26 358-3 195-8 354-12 353-5-2-12-3-17-3-12 0-47-81-146-340-146-383-138-365-165-365-26 0-30 10-145 330-26 72-62 168-80 215s-36 95-39 106c-14 46-43 59-127 59-121-1-113 21-117-342-3-276-1-307 14-324 9-11 25-19 36-19 10 0 18-3 18-8 0-4-58-8-130-8-71 0-130 3-130 8 0 4 11 8 24 8 53 0 56 18 56 341 0 318-5 355-46 365-13 3-24 9-24 13 0 3 126 6 280 7s280-1 280-3zm-5950-291c0-2-27-48-60-103-33-54-69-117-80-139s-26-40-33-40c-6 0-27 28-46 63-19 34-54 94-78 134-23 39-43 75-43 80 0 4 77 8 170 8 94 0 170-1 170-3zm8850-6c0-5-20-41-44-80s-60-101-81-139c-20-37-41-65-46-62-4 3-15 20-24 38-8 18-44 79-79 137s-62 107-61 110c6 9 335 5 335-4zm-1050-626c0-21-48-38-125-44-44-4-111-14-148-22-38-8-150-28-250-44-100-17-199-35-222-41-22-6-92-20-155-30-96-15-117-22-130-40-8-13-35-50-60-83-25-34-67-92-95-131-27-38-80-112-117-162-235-320-222-306-298-318-25-4-112-23-195-43-82-19-169-37-192-40-23-2-48-10-54-18-7-8-20-54-30-102-25-130-93-421-150-647-28-110-84-349-124-532-41-183-86-373-100-422-14-50-34-132-44-183-42-203-94-429-126-543-41-146-53-234-33-246 7-5 38-9 68-9s96-7 145-15c50-8 115-15 146-15 30 0 60-5 65-10 6-6 9-33 6-60-7-71 4-80 94-80h74l-1-77c0-109-18-257-69-583-11-69-24-177-30-240s-20-167-31-230c-10-63-23-151-28-195-23-189-51-390-61-424-5-20-10-55-10-77 0-49-6-52-100-64-99-13-278-38-344-49-32-6-63-8-67-5-5 3-9 38-9 77 0 40-4 99-10 132-5 33-11 149-13 258-3 109-7 201-10 203-3 3-32 0-64-7s-124-12-205-12h-148v-76c0-42-7-175-15-296s-15-236-15-255c-1-62 8-61-281-62l-264-1-33 334c-18 184-34 340-37 347-3 8-32 12-99 12-52 0-138 7-191 16s-98 14-102 11c-3-3-10-156-17-339l-11-333-26-12c-19-9-40-10-85-2-144 25-215 38-301 55l-93 19-5 35c-3 19-12 73-20 120-9 47-22 135-30 195-8 61-22 155-30 210s-19 132-24 170c-6 39-14 91-20 115-5 25-14 88-21 140-6 52-17 131-25 175-7 44-19 123-25 175-7 52-21 138-32 190s-22 152-25 222l-6 127 94 3 94 3-2 60c-3 67 4 75 59 75 20 0 58 4 85 10 70 14 189 32 253 39 47 5 55 9 53 26-4 36-20 109-41 190-12 44-62 247-112 450-50 204-105 424-122 490s-39 158-50 205-60 245-108 440-102 418-120 495c-17 77-41 174-52 215-12 41-26 95-33 120-7 24-18 47-26 51-15 8-172 43-379 86l-135 28-60 82c-33 44-148 200-256 345l-195 263-125 19c-68 10-153 24-189 32-64 14-201 37-435 74-66 10-155 24-198 31-51 8-77 17-77 26 0 7 6 13 13 13 6 0 1529 1 3382 1 2852 1 3668 5 3753 17 6 1 12-2 12-8zM7045 3689c95-20 126-32 113-44-6-6-203 31-219 41-11 6-12 24-1 24 4 0 53-9 107-21zm-1972-33c2-11-18-17-131-42-74-16-106-15-89 2 8 8 188 52 205 51 7-1 14-6 15-11zm1892-36c17-5 51-11 76-15 26-3 55-13 65-21 17-14 14-14-36-8-30 3-65 10-78 15s-35 9-50 9-33 4-41 9c-18 12-3 34 18 26 9-4 30-11 46-15zm-1852-40c-16-16-208-58-218-49-12 12 11 28 40 29 11 1 54 9 95 19 73 17 101 17 83 1zm1800-30c23-5 68-14 100-20 38-8 57-16 57-26 0-17 6-18-114 9-55 12-101 28-104 35-5 15 6 15 61 2zm-1753-34c0-17-7-19-111-40-42-9-84-18-93-22-10-4-16-1-16 9 0 11 22 20 78 31 42 10 86 21 97 26 30 13 45 12 45-4zm1779-55c49-10 86-22 89-30 5-15 1-15-140 14-49 10-88 22-88 27 0 12 44 9 139-11zm-1729-21c0-5-10-12-22-14-13-3-62-14-110-26-103-24-98-23-98-6 0 8 23 18 63 26 34 7 76 16 92 20 43 12 75 12 75 0zm1678-49c99-20 112-25 96-41-7-7-33-5-80 6-38 10-86 21-106 26-39 9-53 28-20 28 9-1 59-9 110-19zm-1645-26c-2-11-11-13-136-41-74-16-108-13-77 6 8 5 40 14 70 20s66 15 80 20c31 11 66 8 63-5zm1584-46c127-27 129-27 116-40-8-8-33-6-84 6-134 31-149 36-149 45 0 13 5 13 117-11zm-1545-24c0-6-13-13-29-17-15-4-55-14-89-22-69-18-104-20-104-6 0 9 11 13 140 43 71 16 81 16 82 2zm1528-54c49-10 85-22 85-29 0-15-4-16-73-2-128 25-152 32-152 47 0 12 6 13 28 8 15-4 65-15 112-24zm-1480-15c0-10-20-19-57-26-32-7-79-18-106-25-29-8-49-9-53-3-3 5-4 12-1 15 4 4 179 47 210 52 4 1 7-5 7-13zm1411-56c52-11 100-22 107-25 22-8 2-26-21-19-12 4-60 15-106 24-47 9-86 21-89 28-5 16-2 15 109-8zm-1371-15c0-8-10-17-22-20-13-2-61-14-107-25-100-24-91-23-91-6 0 9 29 19 88 31 48 10 94 22 102 26 22 12 30 11 30-6zm1348-61c74-15 102-27 90-39-6-6-204 32-220 41-17 11 5 25 29 19 13-3 59-13 101-21zm-1300-16c-2-6-40-19-84-28-43-9-94-20-111-24-22-5-33-4-33 4 0 14 13 19 108 40 95 22 125 24 120 8zm1252-58c51-11 95-20 97-20s3-4 3-10c0-14-31-12-114 6-39 9-81 18-93 20-27 5-31 24-5 24 10 0 61-9 112-20zm-1212-12c-3-7-22-16-44-21-21-4-64-15-95-22-71-19-98-20-81-2 12 11 165 53 205 56 11 1 17-4 15-11zm1142-54c41-9 85-18 98-20 22-4 32-34 10-34-6 0-37 7-67 15-31 7-74 18-95 22-22 5-41 14-44 21-5 16 8 15 98-4zm-1102-16c-4-13-151-55-196-57-44-2-16 24 39 35 30 7 72 16 94 22 56 14 67 14 63 0zm1077-63c106-23 105-23 105-36 0-8-11-10-32-5-103 19-180 36-188 41-19 12-10 27 13 22 12-3 58-13 102-22zm-1030-4c8-14-6-20-97-40-46-11-93-22-105-26-17-6-23-3-23 9 0 8 10 18 23 21 12 2 55 11 95 19 41 8 76 17 80 20 8 9 20 7 27-3zm985-70c90-17 117-28 103-41-4-5-33-2-63 6s-61 14-70 14c-36 0-90 22-90 37 0 11 5 13 18 8 9-4 55-15 102-24zm-950-15c-8-7-51-21-95-30-44-8-90-19-102-22-16-4-23-2-23 8s25 20 83 32c45 10 87 20 92 21 6 2 21 4 35 4 21 1 22-1 10-13zm923-63c58-11 87-21 87-30 0-15-7-16-46-4-16 5-60 14-99 21-38 7-73 15-78 17-16 9 6 24 27 19 11-4 60-14 109-23zm-875-5c-5-13-217-62-227-53-9 10 22 24 79 35 30 6 66 15 80 20 37 13 72 12 68-2zm829-67c46-10 86-20 89-24 18-18-13-18-98-2-124 23-128 24-128 42 0 12 6 14 28 8 15-4 64-15 109-24zm-789-3c-5-13-20-18-124-42-86-19-97-20-92-4 3 7 45 22 94 34 106 26 127 28 122 12zm727-68c103-21 118-27 110-39-7-12-218 33-223 47-5 16-1 15 113-8zm-685-3c0-9-22-18-57-26-32-7-79-17-105-23-26-7-50-9-54-6-11 11 6 28 29 28 12 1 56 9 97 19 95 24 90 23 90 8zm663-73c60-13 87-23 87-32 0-16-9-15-139 13-82 18-91 21-91 37 0 6 11 8 28 5 15-3 66-13 115-23zm-618 7c8-15-22-27-105-45-41-9-85-19-97-22-17-5-23-2-23 10 0 8 10 18 23 21 12 2 55 11 95 19 41 8 76 17 80 20 8 9 20 7 27-3zm40-89c-6-5-48-16-95-25s-96-20-109-23c-18-5-23-4-19 7 5 16 209 68 223 57 6-5 6-11 0-16zm525 7c52-11 96-22 99-25 14-14-18-16-72-5-140 28-157 33-157 42 0 13 26 11 130-12zm-50-70c30-6 65-13 78-15 12-2 22-12 22-20 0-13-6-15-27-10-16 3-64 14-107 23-45 10-81 24-84 32-3 10 3 12 29 6 19-3 59-11 89-16zm-430-2c0-12-216-64-226-54-11 11 29 28 96 42 41 9 76 18 79 20 10 11 51 4 51-8zm330-387c0-5-20-42-44-82s-59-100-78-132c-18-33-38-61-44-63-5-2-19 16-31 39-11 24-46 85-77 137-31 51-56 97-56 102s74 9 165 9c100 0 165-4 165-10zm-2050 8617c-88-26-162-102-200-204-28-76-31-216-5-293 51-154 222-226 364-153 64 33 110 87 142 170 30 78 32 222 5 306-45 137-178 213-306 174zm-1510-316l-25-7v-339l45-3c98-6 160 66 160 185 0 136-66 196-180 164zm2213 317c-25-5-47-17-53-28-12-23-17-611-5-630 6-9 33-11 99-8 160 9 263 75 324 206 33 73 37 198 8 281-50 143-204 217-373 179zm4362 5c-47-10-76-27-80-47-3-11-4-156-3-321l3-300 95 1c82 0 104 4 157 29 75 33 134 93 171 173 23 50 27 70 26 152 0 76-5 105-23 145-25 56-71 109-116 132-65 34-166 50-230 36zm-1426-408c19-63 40-115 46-115 10 1 76 192 75 218 0 8-23 12-79 12h-78l36-115z"/></svg>