<svg xmlns="http://www.w3.org/2000/svg" fill="#5865F2" viewBox="0 0 24 24" xmlns:v="https://vecta.io/nano"><path d="M20.317 4.37a19.791 19.791 0 0 0-4.885-1.515.074.074 0 0 0-.079.037c-.211.375-.445.865-.608 1.249a18.27 18.27 0 0 0-5.487 0 12.64 12.64 0 0 0-.618-1.25.077.077 0 0 0-.079-.037A19.736 19.736 0 0 0 3.677 4.37a.07.07 0 0 0-.032.028C.533 9.046-.319 13.58.099 18.058a.082.082 0 0 0 .031.056 19.9 19.9 0 0 0 5.993 3.029.078.078 0 0 0 .084-.028c.462-.63.873-1.295 1.226-1.994a.076.076 0 0 0-.042-.106c-.653-.248-1.274-.549-1.872-.892a.077.077 0 0 1-.008-.128 10.2 10.2 0 0 0 .372-.291.074.074 0 0 1 .078-.011c3.928 1.793 8.18 1.793 12.061 0a.074.074 0 0 1 .078.009 9.63 9.63 0 0 0 .373.292.077.077 0 0 1-.007.128 12.299 12.299 0 0 1-1.873.891.077.077 0 0 0-.041.107c.36.698.772 1.363 1.225 1.993a.076.076 0 0 0 .084.029c1.961-.607 3.95-1.522 6.002-3.029a.077.077 0 0 0 .031-.055c.5-5.177-.838-9.674-3.549-13.66a.061.061 0 0 0-.031-.029zM8.02 15.331c-1.182 0-2.157-1.086-2.157-2.419s.955-2.419 2.157-2.419c1.211 0 2.176 1.095 2.157 2.419 0 1.333-.956 2.419-2.157 2.419zm7.975 0c-1.182 0-2.157-1.086-2.157-2.419s.955-2.419 2.157-2.419c1.211 0 2.176 1.095 2.157 2.419 0 1.333-.946 2.419-2.157 2.419z"/></svg>