<svg xmlns="http://www.w3.org/2000/svg" fill="#2e51a2" viewBox="0 0 24 24"><path d="M9.29 7.83V16H7.15v-4.94h-.02l-1.65 2.2-1.61-2.2h-.02V16H1.71V7.83h2.03l1.74 2.4 1.78-2.4h2.03zm7.63 2.09V16h-2.14v-2.59h-2.34q.02 1.25.82 2.59l-1.74 1.15q-.4-.59-.68-1.26-.29-.67-.44-1.38-.15-.72-.15-1.42 0-.73.16-1.44t.49-1.35q.32-.64.82-1.13.54-.55 1.16-.84.63-.29 1.3-.4.67-.1 1.55-.1h1.05l.5 1.84H15.6q-1.05 0-1.65.3-.6.3-.85.67-.23.37-.45.93h2.13V9.92h2.14zm3.52-2.09v6.33h2.81l-.5 1.84H18.3V7.83h2.14z"/></svg>