<svg xmlns="http://www.w3.org/2000/svg" fill="#CD2640" viewBox="0 0 24 24" xmlns:v="https://vecta.io/nano"><path d="M6.525 10.03a18.279 18.279 0 0 1 15.78.263c.263.197.657 0 .723-.263l.921-2.827c.131-.263 0-.658-.329-.789A22.356 22.356 0 0 0 .279 8.649a.658.658 0 0 0-.197.855l2.17 4.8c.131.329.526.526.855.395 2.433-.921 6.181-1.841 9.994-1.315-2.63.46-4.668 1.381-6.312 2.367a.658.658 0 0 0-.197.855l1.315 3.025c.131.263.46.329.657.131.526-.526 1.052-.921 1.512-1.183 2.104-1.184 4.997-2.104 8.877-1.907a.658.658 0 0 0 .658-.46l.986-2.959c.132-.263 0-.658-.263-.789A20.054 20.054 0 0 0 6.459 10.03z"/></svg>