<svg xmlns="http://www.w3.org/2000/svg" fill="#000000" viewBox="0 0 24 24" xmlns:v="https://vecta.io/nano"><path d="M11.979 0A12 12 0 0 0 .022 11.037l6.432 2.658c.545-.371 1.203-.59 1.912-.59l.188.006 2.861-4.142V8.91a4.53 4.53 0 0 1 4.524-4.524c2.494 0 4.524 2.031 4.524 4.527a4.53 4.53 0 0 1-4.524 4.525h-.105l-4.076 2.911.004.159c0 1.875-1.515 3.396-3.39 3.396-1.635 0-3.016-1.173-3.331-2.727L.436 15.27C1.862 20.307 6.486 24 11.979 24c6.627 0 11.999-5.373 11.999-12S18.605 0 11.979 0zM7.54 18.21l-1.473-.61a2.55 2.55 0 0 0 4.646-.125c.263-.63.264-1.319.005-1.949s-.75-1.121-1.377-1.383-1.29-.249-1.878-.03l1.523.63a1.88 1.88 0 0 1 1.009 2.455c-.397.957-1.497 1.41-2.454 1.012H7.54zm11.415-9.303a3.02 3.02 0 0 0-3.015-3.015 3.02 3.02 0 0 0-3.015 3.015c0 1.665 1.35 3.015 3.015 3.015s3.015-1.35 3.015-3.015zm-5.273-.005c0-1.252 1.013-2.266 2.265-2.266a2.27 2.27 0 0 1 2.266 2.266 2.27 2.27 0 0 1-2.266 2.265c-1.253 0-2.265-1.014-2.265-2.265z"/></svg>